<svg xmlns="http://www.w3.org/2000/svg" width="256" height="256" viewBox="0 0 100 100"><rect width="100" height="100" rx="20" fill="#7d6ee7"></rect><path fill="#fff" d="M-3.50 32.94L-3.50 32.94Q-3.50 34.56-2.78 36.18L-2.78 36.18Q-3.59 37.26-5.48 37.26Q-7.37 37.26-8.68 35.91Q-9.98 34.56-9.98 31.50L-9.98 31.50Q-9.98 24.39-5.66 19.94Q-1.34 15.48 5.86 15.48L5.86 15.48Q17.74 15.48 19.99 28.44L19.99 28.44Q21.97 22.41 26.47 18.81Q30.97 15.21 37.00 15.21L37.00 15.21Q50.32 15.30 54.19 29.79L54.19 29.79Q55.99 23.22 60.62 19.22Q65.26 15.21 71.65 15.21L71.65 15.21Q81.01 15.30 85.64 22.28Q90.28 29.25 90.28 40.95L90.28 40.95L90.28 66.42Q90.28 71.64 92.39 74.79Q94.51 77.94 97.93 77.94L97.93 77.94Q106.39 77.94 106.39 61.02L106.39 61.02Q106.48 60.48 107.33 60.48Q108.19 60.48 108.64 60.75L108.64 60.75Q109.98 61.74 109.98 65.16L109.98 65.16Q109.98 72.72 106.39 77.40Q102.79 82.08 96.84 82.08L96.84 82.08Q88.20 82.08 84.97 76.05L84.97 76.05Q82.09 70.56 82.09 61.02L82.09 61.02L82.09 40.95Q82.09 19.71 71.65 19.71L71.65 19.71Q63.91 19.71 59.72 26.55Q55.54 33.39 55.54 44.73L55.54 44.73L55.54 76.05Q55.54 78.75 54.19 80.15Q52.84 81.54 50.86 81.54Q48.88 81.54 47.44 80.28L47.44 80.28L47.44 40.95Q47.44 19.71 37.00 19.71L37.00 19.71Q28.72 19.71 24.76 27.68Q20.80 35.64 20.80 49.05L20.80 49.05L20.80 60.57Q20.80 71.73 17.24 78.26Q13.69 84.78 6.53 84.78Q-0.62 84.78-4.22 81.50Q-7.82 78.21-7.82 72.81L-7.82 72.81Q-7.82 65.88-3.32 65.88L-3.32 65.88Q-2.24 65.88-1.43 66.38Q-0.62 66.88-0.08 67.95L-0.08 67.95Q-0.80 69.84-0.80 73.58Q-0.80 77.31 1.13 79.20Q3.07 81.09 6.04 81.09L6.04 81.09Q12.43 81.09 12.43 65.97L12.43 65.97L12.43 31.14Q12.43 25.92 10.31 22.77Q8.20 19.62 4.55 19.62Q0.91 19.62-1.30 22.55Q-3.50 25.47-3.50 32.94Z"></path></svg>